<?xml version="1.0" encoding="UTF-8" standalone="no"?>
<!DOCTYPE svg PUBLIC "-//W3C//DTD SVG 1.1//EN"
 "http://www.w3.org/Graphics/SVG/1.1/DTD/svg11.dtd">
<!-- Generated by graphviz version 2.38.0 (20140413.2041)
 -->
<!-- Title: line Pages: 1 -->
<svg width="890pt" height="357pt"
 viewBox="0.00 0.00 889.89 357.22" xmlns="http://www.w3.org/2000/svg" xmlns:xlink="http://www.w3.org/1999/xlink">
<g id="graph0" class="graph" transform="scale(1 1) rotate(0) translate(4 353.22)">
<title>line</title>
<polygon fill="white" stroke="none" points="-4,4 -4,-353.22 885.889,-353.22 885.889,4 -4,4"/>
<!-- beep -->
<g id="node1" class="node"><title>beep</title>
<polygon fill="none" stroke="black" points="60.0549,-293.836 63.4209,-293.953 66.7522,-294.129 70.0351,-294.363 73.2563,-294.653 76.4028,-295 79.4623,-295.403 82.4228,-295.859 85.2732,-296.369 88.0027,-296.931 90.6017,-297.542 93.0609,-298.203 95.3724,-298.909 97.5286,-299.661 99.5233,-300.455 101.351,-301.289 103.007,-302.162 104.488,-303.071 105.791,-304.013 106.915,-304.985 107.859,-305.986 108.623,-307.012 109.208,-308.06 109.616,-309.128 109.849,-310.213 109.912,-311.311 109.808,-312.421 109.543,-313.537 109.12,-314.659 108.547,-315.782 107.829,-316.903 106.974,-318.02 105.988,-319.13 104.877,-320.228 103.651,-321.313 102.316,-322.381 100.879,-323.429 99.3478,-324.455 97.7302,-325.456 96.0332,-326.428 94.2637,-327.37 92.4285,-328.279 90.5341,-329.152 88.5866,-329.986 86.5919,-330.78 84.5555,-331.532 82.4824,-332.238 80.3774,-332.898 78.2447,-333.51 76.0883,-334.072 73.9118,-334.581 71.7183,-335.038 69.5107,-335.441 67.2916,-335.788 65.0631,-336.078 62.8275,-336.312 60.5864,-336.488 58.3416,-336.605 56.0946,-336.664 53.8469,-336.664 51.5999,-336.605 49.3551,-336.488 47.114,-336.312 44.8784,-336.078 42.65,-335.788 40.4308,-335.441 38.2232,-335.038 36.0297,-334.581 33.8532,-334.072 31.6968,-333.51 29.5641,-332.898 27.4591,-332.238 25.386,-331.532 23.3496,-330.78 21.3549,-329.986 19.4074,-329.152 17.513,-328.279 15.6778,-327.37 13.9083,-326.428 12.2113,-325.456 10.5937,-324.455 9.06283,-323.429 7.62596,-322.381 6.29055,-321.313 5.06407,-320.228 3.95396,-319.13 2.96756,-318.02 2.11205,-316.903 1.39439,-315.782 0.821223,-314.659 0.398831,-313.537 0.133054,-312.421 0.029226,-311.311 0.0921106,-310.213 0.325837,-309.128 0.733842,-308.06 1.31882,-307.012 2.08266,-305.986 3.02642,-304.985 4.15029,-304.013 5.45353,-303.071 6.9345,-302.162 8.59058,-301.289 10.4182,-300.455 12.4129,-299.661 14.5692,-298.909 16.8806,-298.203 19.3399,-297.542 21.9388,-296.931 24.6683,-296.369 27.5187,-295.859 30.4792,-295.403 33.5387,-295 36.6853,-294.653 39.9064,-294.363 43.1893,-294.129 46.5206,-293.953 49.8867,-293.836 53.2737,-293.777 56.6678,-293.777 60.0549,-293.836"/>
<text text-anchor="middle" x="54.9708" y="-310.22" font-family="Times,serif" font-size="20.00">\beep</text>
</g>
<!-- irssi -->
<g id="node2" class="node"><title>irssi</title>
<g id="a_node2"><a xlink:href="/" xlink:title="irssi">
<polygon fill="none" stroke="black" points="235.307,-333.22 164.394,-333.22 146.152,-297.22 217.065,-297.22 235.307,-333.22"/>
<text text-anchor="middle" x="190.73" y="-311.52" font-family="Times,serif" font-size="14.00">irssi</text>
</a>
</g>
</g>
<!-- beep&#45;&gt;irssi -->
<g id="edge1" class="edge"><title>beep&#45;&gt;irssi</title>
<path fill="none" stroke="black" d="M108.836,-315.22C120.688,-315.22 133.156,-315.22 144.657,-315.22"/>
<polygon fill="black" stroke="black" points="144.903,-318.721 154.903,-315.22 144.903,-311.721 144.903,-318.721"/>
</g>
<!-- shell1 -->
<g id="node3" class="node"><title>shell1</title>
<g id="a_node3"><a xlink:href="#shell" xlink:title="bash\ntcsh\nzsh\n...">
<polygon fill="none" stroke="black" points="514.706,-349.22 460.706,-349.22 460.706,-281.22 514.706,-281.22 514.706,-349.22"/>
<text text-anchor="middle" x="487.706" y="-334.02" font-family="Times,serif" font-size="14.00">bash</text>
<text text-anchor="middle" x="487.706" y="-319.02" font-family="Times,serif" font-size="14.00">tcsh</text>
<text text-anchor="middle" x="487.706" y="-304.02" font-family="Times,serif" font-size="14.00">zsh</text>
<text text-anchor="middle" x="487.706" y="-289.02" font-family="Times,serif" font-size="14.00">...</text>
</a>
</g>
</g>
<!-- irssi&#45;&gt;shell1 -->
<g id="edge2" class="edge"><title>irssi&#45;&gt;shell1</title>
<path fill="none" stroke="black" d="M226.435,-315.22C282.636,-315.22 393.033,-315.22 450.304,-315.22"/>
<polygon fill="black" stroke="black" points="450.354,-318.721 460.354,-315.22 450.354,-311.721 450.354,-318.721"/>
</g>
<!-- screen -->
<g id="node4" class="node"><title>screen</title>
<polygon fill="none" stroke="black" points="876.693,-304.72 811.693,-304.72 811.693,-251.72 876.693,-251.72 876.693,-304.72"/>
<text text-anchor="middle" x="844.193" y="-289.52" font-family="Times,serif" font-size="14.00">screen</text>
<text text-anchor="middle" x="844.193" y="-274.52" font-family="Times,serif" font-size="14.00">tmux</text>
<text text-anchor="middle" x="844.193" y="-259.52" font-family="Times,serif" font-size="14.00">...</text>
</g>
<!-- shell1&#45;&gt;screen -->
<g id="edge3" class="edge"><title>shell1&#45;&gt;screen</title>
<path fill="none" stroke="black" d="M514.772,-312.5C575.578,-306.153 727.245,-290.323 801.249,-282.598"/>
<polygon fill="black" stroke="black" points="802.002,-286.039 811.584,-281.52 801.275,-279.077 802.002,-286.039"/>
</g>
<!-- sshd -->
<g id="node5" class="node"><title>sshd</title>
<ellipse fill="none" stroke="black" cx="54.9708" cy="-183.22" rx="32.4942" ry="18"/>
<text text-anchor="middle" x="54.9708" y="-179.52" font-family="Times,serif" font-size="14.00">sshd</text>
</g>
<!-- screen&#45;&gt;sshd -->
<g id="edge4" class="edge"><title>screen&#45;&gt;sshd</title>
<path fill="none" stroke="black" d="M811.612,-272.296C769.391,-264.903 692.144,-253.22 625.601,-253.22 338.112,-253.22 338.112,-253.22 338.112,-253.22 246.843,-253.22 143.725,-218.288 91.0451,-197.777"/>
<polygon fill="black" stroke="black" points="92.0911,-194.427 81.5047,-194.005 89.5169,-200.937 92.0911,-194.427"/>
</g>
<!-- ssh -->
<g id="node6" class="node"><title>ssh</title>
<ellipse fill="none" stroke="black" cx="190.73" cy="-183.22" rx="27" ry="18"/>
<text text-anchor="middle" x="190.73" y="-179.52" font-family="Times,serif" font-size="14.00">ssh</text>
</g>
<!-- sshd&#45;&gt;ssh -->
<g id="edge5" class="edge"><title>sshd&#45;&gt;ssh</title>
<path fill="none" stroke="black" d="M87.6698,-183.22C107.406,-183.22 132.856,-183.22 153.404,-183.22"/>
<polygon fill="black" stroke="black" points="153.647,-186.721 163.647,-183.22 153.647,-179.721 153.647,-186.721"/>
</g>
<!-- putty -->
<g id="node15" class="node"><title>putty</title>
<ellipse fill="none" stroke="black" cx="624.601" cy="-113.22" rx="35.9954" ry="18"/>
<text text-anchor="middle" x="624.601" y="-109.52" font-family="Times,serif" font-size="14.00">putty</text>
</g>
<!-- sshd&#45;&gt;putty -->
<g id="edge15" class="edge"><title>sshd&#45;&gt;putty</title>
<path fill="none" stroke="black" d="M82.8358,-173.89C100.563,-168.05 124.405,-160.791 145.942,-156.22 302.511,-122.99 493.276,-115.419 578.597,-113.71"/>
<polygon fill="black" stroke="black" points="578.779,-117.207 588.713,-113.525 578.651,-110.208 578.779,-117.207"/>
</g>
<!-- shell2 -->
<g id="node7" class="node"><title>shell2</title>
<g id="a_node7"><a xlink:href="#shell" xlink:title="bash\ntcsh\nzsh\n...">
<polygon fill="none" stroke="black" points="366.112,-217.22 312.112,-217.22 312.112,-149.22 366.112,-149.22 366.112,-217.22"/>
<text text-anchor="middle" x="339.112" y="-202.02" font-family="Times,serif" font-size="14.00">bash</text>
<text text-anchor="middle" x="339.112" y="-187.02" font-family="Times,serif" font-size="14.00">tcsh</text>
<text text-anchor="middle" x="339.112" y="-172.02" font-family="Times,serif" font-size="14.00">zsh</text>
<text text-anchor="middle" x="339.112" y="-157.02" font-family="Times,serif" font-size="14.00">...</text>
</a>
</g>
</g>
<!-- ssh&#45;&gt;shell2 -->
<g id="edge6" class="edge"><title>ssh&#45;&gt;shell2</title>
<path fill="none" stroke="black" d="M217.9,-183.22C241.173,-183.22 275.447,-183.22 301.449,-183.22"/>
<polygon fill="black" stroke="black" points="301.675,-186.721 311.675,-183.22 301.675,-179.721 301.675,-186.721"/>
</g>
<!-- xterm -->
<g id="node8" class="node"><title>xterm</title>
<polygon fill="none" stroke="black" points="532.706,-224.72 442.706,-224.72 442.706,-141.72 532.706,-141.72 532.706,-224.72"/>
<text text-anchor="middle" x="487.706" y="-209.52" font-family="Times,serif" font-size="14.00">xterm</text>
<text text-anchor="middle" x="487.706" y="-194.52" font-family="Times,serif" font-size="14.00">rxvt</text>
<text text-anchor="middle" x="487.706" y="-179.52" font-family="Times,serif" font-size="14.00">lxterminal</text>
<text text-anchor="middle" x="487.706" y="-164.52" font-family="Times,serif" font-size="14.00">konsole</text>
<text text-anchor="middle" x="487.706" y="-149.52" font-family="Times,serif" font-size="14.00">...</text>
</g>
<!-- shell2&#45;&gt;xterm -->
<g id="edge7" class="edge"><title>shell2&#45;&gt;xterm</title>
<path fill="none" stroke="black" d="M366.32,-183.22C384.674,-183.22 409.86,-183.22 432.452,-183.22"/>
<polygon fill="black" stroke="black" points="432.616,-186.721 442.616,-183.22 432.616,-179.721 432.616,-186.721"/>
</g>
<!-- pulsaudio -->
<g id="node9" class="node"><title>pulsaudio</title>
<ellipse fill="none" stroke="black" cx="624.601" cy="-206.22" rx="55.7903" ry="18"/>
<text text-anchor="middle" x="624.601" y="-202.52" font-family="Times,serif" font-size="14.00">pulsaudio</text>
</g>
<!-- xterm&#45;&gt;pulsaudio -->
<g id="edge8" class="edge"><title>xterm&#45;&gt;pulsaudio</title>
<path fill="none" stroke="black" d="M532.875,-190.752C543.007,-192.479 553.938,-194.343 564.584,-196.158"/>
<polygon fill="black" stroke="black" points="564.222,-199.647 574.668,-197.877 565.399,-192.746 564.222,-199.647"/>
</g>
<!-- alsa -->
<g id="node10" class="node"><title>alsa</title>
<polygon fill="none" stroke="black" points="770.496,-179.22 716.496,-179.22 716.496,-141.22 770.496,-141.22 770.496,-179.22"/>
<text text-anchor="middle" x="743.496" y="-164.02" font-family="Times,serif" font-size="14.00">alsa</text>
<text text-anchor="middle" x="743.496" y="-149.02" font-family="Times,serif" font-size="14.00">oss</text>
</g>
<!-- xterm&#45;&gt;alsa -->
<g id="edge10" class="edge"><title>xterm&#45;&gt;alsa</title>
<path fill="none" stroke="black" d="M532.913,-179.214C582.057,-174.76 660.508,-167.651 706.202,-163.51"/>
<polygon fill="black" stroke="black" points="706.611,-166.987 716.255,-162.599 705.98,-160.016 706.611,-166.987"/>
</g>
<!-- pulsaudio&#45;&gt;alsa -->
<g id="edge9" class="edge"><title>pulsaudio&#45;&gt;alsa</title>
<path fill="none" stroke="black" d="M660.673,-192.419C675.208,-186.699 692.051,-180.071 706.664,-174.321"/>
<polygon fill="black" stroke="black" points="708.345,-177.421 716.369,-170.502 705.782,-170.907 708.345,-177.421"/>
</g>
<!-- mixer -->
<g id="node11" class="node"><title>mixer</title>
<ellipse fill="none" stroke="black" cx="844.193" cy="-113.22" rx="37.8943" ry="18"/>
<text text-anchor="middle" x="844.193" y="-109.52" font-family="Times,serif" font-size="14.00">mixer</text>
</g>
<!-- alsa&#45;&gt;mixer -->
<g id="edge11" class="edge"><title>alsa&#45;&gt;mixer</title>
<path fill="none" stroke="black" d="M770.686,-147.749C782.063,-142.331 795.564,-135.902 807.813,-130.068"/>
<polygon fill="black" stroke="black" points="809.357,-133.21 816.88,-125.75 806.347,-126.89 809.357,-133.21"/>
</g>
<!-- amplifier -->
<g id="node12" class="node"><title>amplifier</title>
<ellipse fill="none" stroke="black" cx="54.9708" cy="-46.2205" rx="52.7911" ry="18"/>
<text text-anchor="middle" x="54.9708" y="-42.5205" font-family="Times,serif" font-size="14.00">amplifier</text>
</g>
<!-- mixer&#45;&gt;amplifier -->
<g id="edge12" class="edge"><title>mixer&#45;&gt;amplifier</title>
<path fill="none" stroke="black" d="M813.342,-102.782C771.799,-89.2104 693.943,-67.2205 625.601,-67.2205 338.112,-67.2205 338.112,-67.2205 338.112,-67.2205 260.891,-67.2205 172.108,-59.3005 115.087,-53.1881"/>
<polygon fill="black" stroke="black" points="115.14,-49.6732 104.82,-52.0701 114.382,-56.6321 115.14,-49.6732"/>
</g>
<!-- loudspeaker -->
<g id="node13" class="node"><title>loudspeaker</title>
<ellipse fill="none" stroke="black" cx="339.112" cy="-21.2205" rx="67.6881" ry="18"/>
<text text-anchor="middle" x="339.112" y="-17.5205" font-family="Times,serif" font-size="14.00">loudspeaker</text>
</g>
<!-- amplifier&#45;&gt;loudspeaker -->
<g id="edge13" class="edge"><title>amplifier&#45;&gt;loudspeaker</title>
<path fill="none" stroke="black" d="M106.087,-41.7798C150.16,-37.8745 214.881,-32.1397 264.778,-27.7185"/>
<polygon fill="black" stroke="black" points="265.216,-31.1935 274.868,-26.8244 264.598,-24.2208 265.216,-31.1935"/>
</g>
<!-- ear -->
<g id="node14" class="node"><title>ear</title>
<polygon fill="none" stroke="black" points="847.691,0.164015 850.007,0.0466275 852.299,-0.129052 854.558,-0.362542 856.774,-0.653202 858.939,-1.00023 861.044,-1.40269 863.081,-1.85947 865.042,-2.36931 866.92,-2.93082 868.709,-3.54246 870.401,-4.20256 871.991,-4.9093 873.475,-5.66075 874.847,-6.45485 876.105,-7.28941 877.244,-8.16217 878.263,-9.07071 879.16,-10.0126 879.933,-10.9851 880.583,-11.9857 881.108,-13.0117 881.511,-14.0601 881.791,-15.1282 881.952,-16.2129 881.996,-17.3114 881.924,-18.4206 881.741,-19.5375 881.451,-20.659 881.056,-21.782 880.562,-22.9035 879.974,-24.0203 879.295,-25.1295 878.531,-26.228 877.687,-27.3128 876.769,-28.3808 875.78,-29.4293 874.727,-30.4552 873.614,-31.4558 872.446,-32.4284 871.228,-33.3702 869.966,-34.2788 868.662,-35.1515 867.322,-35.9861 865.95,-36.7802 864.549,-37.5317 863.122,-38.2384 861.674,-38.8985 860.206,-39.5101 858.723,-40.0716 857.225,-40.5815 855.716,-41.0383 854.197,-41.4407 852.67,-41.7877 851.137,-42.0784 849.598,-42.3119 848.056,-42.4876 846.512,-42.605 844.966,-42.6637 843.419,-42.6637 841.873,-42.605 840.329,-42.4876 838.787,-42.3119 837.248,-42.0784 835.715,-41.7877 834.188,-41.4407 832.669,-41.0383 831.16,-40.5815 829.662,-40.0716 828.179,-39.5101 826.711,-38.8985 825.263,-38.2384 823.836,-37.5317 822.435,-36.7802 821.063,-35.9861 819.723,-35.1515 818.419,-34.2788 817.157,-33.3702 815.939,-32.4284 814.771,-31.4558 813.659,-30.4552 812.605,-29.4293 811.617,-28.3808 810.698,-27.3128 809.854,-26.228 809.09,-25.1295 808.411,-24.0203 807.823,-22.9035 807.329,-21.782 806.934,-20.659 806.644,-19.5375 806.461,-18.4206 806.39,-17.3114 806.433,-16.2129 806.594,-15.1282 806.874,-14.0601 807.277,-13.0117 807.802,-11.9857 808.452,-10.9851 809.225,-10.0126 810.122,-9.07071 811.141,-8.16217 812.28,-7.28941 813.538,-6.45485 814.91,-5.66075 816.394,-4.9093 817.984,-4.20256 819.676,-3.54246 821.465,-2.93082 823.343,-2.36931 825.304,-1.85947 827.341,-1.40269 829.446,-1.00023 831.611,-0.653202 833.827,-0.362542 836.086,-0.129052 838.378,0.0466275 840.694,0.164015 843.025,0.22279 845.36,0.22279 847.691,0.164015"/>
<text text-anchor="middle" x="844.193" y="-16.2205" font-family="Times,serif" font-size="20.00">ear</text>
</g>
<!-- loudspeaker&#45;&gt;ear -->
<g id="edge14" class="edge"><title>loudspeaker&#45;&gt;ear</title>
<path fill="none" stroke="black" d="M406.917,-21.2205C510.529,-21.2205 707.339,-21.2205 796.826,-21.2205"/>
<polygon fill="black" stroke="black" points="796.938,-24.7206 806.938,-21.2205 796.938,-17.7206 796.938,-24.7206"/>
</g>
<!-- putty&#45;&gt;mixer -->
<g id="edge16" class="edge"><title>putty&#45;&gt;mixer</title>
<path fill="none" stroke="black" d="M660.561,-113.22C697.251,-113.22 755.154,-113.22 795.907,-113.22"/>
<polygon fill="black" stroke="black" points="796.135,-116.721 806.135,-113.22 796.135,-109.721 796.135,-116.721"/>
</g>
</g>
</svg>
